<?xml version="1.0" encoding="UTF-8"?>
<svg width="24px" height="24px" viewBox="0 0 24 24" version="1.1" xmlns="http://www.w3.org/2000/svg" xmlns:xlink="http://www.w3.org/1999/xlink">
    <title>menu-opensource</title>
    <g id="页面-1" stroke="none" stroke-width="1" fill="none" fill-rule="evenodd">
        <g id="menu-opensource" fill-rule="nonzero">
            <rect id="矩形" fill="#000000" opacity="0" x="0" y="0" width="24" height="24"></rect>
            <path d="M7.5115077,7.09832509 C7.17475122,7.0983883 6.90178967,7.37140108 6.90178967,7.70815756 C6.90178967,8.04491404 7.17475122,8.31792683 7.5115077,8.31799004 L16.0491624,8.31799004 C16.3859189,8.31792683 16.6588804,8.04491404 16.6588804,7.70815756 C16.6588804,7.37140108 16.3859189,7.0983883 16.0491624,7.09832509 L7.5115077,7.09832509 Z M11.1705026,13.1966499 L7.5115077,13.1966499 C7.17470651,13.1966499 6.90167521,13.4696812 6.90167521,13.8064824 C6.90167521,14.1432835 7.17470651,14.4163148 7.5115077,14.4163148 L11.1705026,14.4163148 C11.5073037,14.4163148 11.7803351,14.1432835 11.7803351,13.8064824 C11.7803351,13.4696812 11.5073037,13.1966499 11.1705026,13.1966499 Z M9.95083759,20.5146396 L5.68201026,20.5146396 C5.358535,20.5146396 5.04830844,20.3861396 4.81957688,20.157408 C4.59084533,19.9286765 4.46234528,19.6184499 4.46234529,19.2949747 L4.46234529,4.65899517 C4.46234529,4.33551991 4.59084534,4.02529335 4.81957689,3.7965618 C5.04830844,3.56783026 5.358535,3.43933021 5.68201026,3.43933022 L17.8786598,3.43933022 C18.5522622,3.43933022 19.0983248,3.98539282 19.0983248,4.65899517 L19.0983248,10.1474875 C19.098388,10.484244 19.3714008,10.7572055 19.7081573,10.7572055 C20.0449137,10.7572055 20.3179897,10.484244 20.3179897,10.1474875 L20.3179897,4.0491627 C20.3179897,3.56394981 20.1252397,3.09860998 19.7821424,2.75551265 C19.439045,2.41241532 18.9737052,2.21966525 18.4884923,2.21966525 L5.07217778,2.21966525 C4.58696488,2.21966525 4.12162505,2.41241532 3.77852773,2.75551265 C3.4354304,3.09860998 3.24268034,3.56394981 3.24268034,4.0491627 L3.24268034,19.9048072 C3.24268034,20.9152107 4.06177424,21.7343046 5.07217778,21.7343046 L9.95083759,21.7343046 C10.2875941,21.7343046 10.5605556,21.4612286 10.5605556,21.1244721 C10.5605556,20.7877156 10.2875941,20.5147028 9.95083759,20.5146396 Z" id="形状" fill="#FFFFFF"></path>
            <path d="M14.2056521,14.4144985 C15.7885495,12.8316011 18.3220241,12.730607 20.0258992,14.182481 C21.7297743,15.6343551 22.0321156,18.1517511 20.7204792,19.9657904 L20.7204792,19.9657904 L22.53778,21.7343046 L22.5499766,21.7221079 C22.7631291,21.8954724 22.85896,22.1750818 22.796963,22.4427487 C22.7349659,22.7104156 22.5259624,22.9194192 22.2582955,22.9814162 C21.9906286,23.0434132 21.7110192,22.9475823 21.5376547,22.7344298 L21.5376547,22.7344298 L19.7569439,20.9293257 C17.9429045,22.240962 15.4255085,21.9386207 13.9736345,20.2347456 C12.5217606,18.5308704 12.6227547,15.9973959 14.2056521,14.4144985 Z M18.4356913,14.6484185 C17.2962974,14.1764661 15.9847982,14.4373395 15.1127439,15.3093938 C14.2406896,16.1814482 13.9798162,17.4929473 14.4517686,18.6323412 C14.923721,19.7717351 16.0355563,20.5146396 17.2688274,20.5146396 C18.9528332,20.5146396 20.3179897,19.1494831 20.3179897,17.4654772 C20.3179897,16.2322062 19.5750852,15.1203709 18.4356913,14.6484185 Z" id="形状结合" fill="#1EE3CF"></path>
        </g>
    </g>
</svg>