<?xml version="1.0" encoding="UTF-8"?>
<svg width="24px" height="24px" viewBox="0 0 24 24" version="1.1" xmlns="http://www.w3.org/2000/svg" xmlns:xlink="http://www.w3.org/1999/xlink">
    <title>menu-community</title>
    <g id="页面-1" stroke="none" stroke-width="1" fill="none" fill-rule="evenodd">
        <g id="menu-community" fill-rule="nonzero">
            <rect id="矩形" fill="#000000" opacity="0" x="0" y="0" width="24" height="24"></rect>
            <path d="M20.25,3.0625 C21.3890873,3.0625 22.3125,3.9859127 22.3125,5.125 L22.3125,12 C22.3125,13.1390873 21.3890873,14.0625 20.25,14.0625 L19.5625,14.0625 L19.5625,15.4375 C19.5625,16.5765873 18.6390873,17.5 17.5,17.5 L9.0059375,17.5 L4.441625,21.1685 L4.441625,17.5 L3.75,17.5 C2.6109127,17.5 1.6875,16.5765873 1.6875,15.4375 L1.6875,8.5625 C1.6875,7.4234127 2.6109127,6.5 3.75,6.5 L4.4375,6.5 L4.4375,5.125 C4.43743916,4.03286664 5.2887477,3.13000932 6.379,3.0659375 L6.5,3.0625 L20.25,3.0625 Z M17.5,7.875 L3.75,7.875 C3.37030423,7.875 3.0625,8.18280423 3.0625,8.5625 L3.0625,15.4375 C3.0625,15.8171958 3.37030423,16.125 3.75,16.125 L5.816625,16.125 L5.816625,18.2995625 L8.52125,16.125 L17.5,16.125 C17.8796958,16.125 18.1875,15.8171958 18.1875,15.4375 L18.1875,8.5625 C18.1875,8.18280423 17.8796958,7.875 17.5,7.875 Z M20.25,4.4375 L6.5,4.4375 C6.12030423,4.4375 5.8125,4.74530423 5.8125,5.125 L5.8125,6.5 L17.5,6.5 C18.6390873,6.5 19.5625,7.4234127 19.5625,8.5625 L19.5625,12.6875 L20.25,12.6875 C20.5985452,12.6875 20.8919077,12.4265889 20.9326875,12.0804375 L20.9375,12 L20.9375,5.125 C20.9375,4.74530423 20.6296958,4.4375 20.25,4.4375 Z" id="形状" fill="#FFFFFF"></path>
            <path d="M6.84375,11.3125 C7.41329365,11.3125 7.875,11.7742064 7.875,12.34375 C7.875,12.9132936 7.41329365,13.375 6.84375,13.375 C6.27420635,13.375 5.8125,12.9132936 5.8125,12.34375 C5.8125,11.7742064 6.27420635,11.3125 6.84375,11.3125 Z M10.96875,11.3125 C11.5382936,11.3125 12,11.7742064 12,12.34375 C12,12.9132936 11.5382936,13.375 10.96875,13.375 C10.3992064,13.375 9.9375,12.9132936 9.9375,12.34375 C9.9375,11.7742064 10.3992064,11.3125 10.96875,11.3125 Z M15.09375,11.3125 C15.6632936,11.3125 16.125,11.7742064 16.125,12.34375 C16.125,12.9132936 15.6632936,13.375 15.09375,13.375 C14.5242064,13.375 14.0625,12.9132936 14.0625,12.34375 C14.0625,11.7742064 14.5242064,11.3125 15.09375,11.3125 Z" id="形状" fill="#1EE3CF"></path>
        </g>
    </g>
</svg>