<?xml version="1.0" encoding="UTF-8"?>
<svg width="24px" height="24px" viewBox="0 0 24 24" version="1.1" xmlns="http://www.w3.org/2000/svg" xmlns:xlink="http://www.w3.org/1999/xlink">
    <title>menu-toggle-icon</title>
    <g id="页面-1" stroke="none" stroke-width="1" fill="none" fill-rule="evenodd">
        <g id="menu-toggle-icon" fill-rule="nonzero">
            <rect id="矩形" fill="#000000" opacity="0" x="0" y="0" width="24" height="24"></rect>
            <path d="M21.43056,13.40256 L13.9002,13.40256 C13.20708,13.40256 12.64512,13.96452 12.64512,14.65764 L12.64512,22.188 C12.64512,22.88112 13.20708,23.44296 13.9002,23.44296 L21.43056,23.44296 C22.12368,23.44296 22.68552,22.88112 22.68552,22.188 L22.68552,14.65764 C22.68552,13.9644 22.12356,13.40256 21.43056,13.40256 L21.43056,13.40256 Z M21.01236,21.76956 L14.31864,21.76956 L14.31864,15.07608 L21.01236,15.07608 L21.01236,21.76956 L21.01236,21.76956 Z M23.39232,5.89068 L18.48336,0.98184 C18.03168,0.53004 17.29908,0.53004 16.84716,0.98184 L11.93844,5.89068 C11.48652,6.34248 11.48652,7.07508 11.93844,7.527 L16.84716,12.43584 C17.2992,12.88776 18.03168,12.88776 18.48336,12.43584 L23.3922,7.527 C23.84412,7.07508 23.84412,6.34248 23.39232,5.89068 Z M17.66532,11.07228 L13.302,6.70884 L17.66544,2.3454 L22.02864,6.70884 L17.66532,11.07228 Z M9.71676,1.68864 L2.18628,1.68864 C1.49316,1.68864 0.9312,2.2506 0.9312,2.94372 L0.9312,10.47396 C0.9312,11.16708 1.49316,11.72904 2.18628,11.72904 L9.71664,11.72904 C10.40976,11.72904 10.97172,11.16708 10.97172,10.47396 L10.97172,2.94372 C10.97184,2.25048 10.40988,1.68864 9.71676,1.68864 Z M9.29832,10.05564 L2.60472,10.05564 L2.60472,3.36204 L9.29832,3.36204 L9.29832,10.05564 Z M9.71676,13.40256 L2.18628,13.40256 C1.49316,13.40256 0.9312,13.96452 0.9312,14.65764 L0.9312,22.188 C0.9312,22.88112 1.49316,23.44296 2.18628,23.44296 L9.71664,23.44296 C10.40976,23.44296 10.97172,22.88112 10.97172,22.188 L10.97172,14.65764 C10.97184,13.9644 10.40988,13.40256 9.71676,13.40256 Z M9.29832,21.76956 L2.60472,21.76956 L2.60472,15.07608 L9.29832,15.07608 L9.29832,21.76956 Z" id="形状" fill="#1EE3CF"></path>
        </g>
    </g>
</svg>