<?xml version="1.0" encoding="UTF-8"?>
<svg width="24px" height="24px" viewBox="0 0 24 24" version="1.1" xmlns="http://www.w3.org/2000/svg" xmlns:xlink="http://www.w3.org/1999/xlink">
    <title>menu-info</title>
    <g id="页面-1" stroke="none" stroke-width="1" fill="none" fill-rule="evenodd">
        <g id="menu-info" fill-rule="nonzero">
            <rect id="矩形" fill="#000000" opacity="0" x="0" y="0" width="24" height="24"></rect>
            <path d="M19.6662051,3.78297852 L12.1251895,2.38649414 C12.0426635,2.37121538 11.9580371,2.37117897 11.875498,2.38638672 L4.29151367,3.78287109 C3.96531641,3.84291992 3.72851562,4.12730859 3.72851562,4.45898437 L3.72851562,13.3964844 C3.72851562,14.8057305 4.17223242,16.123002 5.04735547,17.3117324 C5.72755078,18.235668 6.66759961,19.0792734 7.84139844,19.8191523 C9.80337305,21.0558145 11.741543,21.5801406 11.8230762,21.6018613 C11.940512,21.6331096 12.0641302,21.632687 12.1813496,21.6006367 C12.2624102,21.5784648 14.1892578,21.043332 16.1397383,19.8013418 C17.3065332,19.0583906 18.2409531,18.2143555 18.9170449,17.2926328 C19.787291,16.1063516 20.2285156,14.7954824 20.2285156,13.3964844 L20.2285156,4.45898437 C20.2285156,4.12756641 19.9920801,3.84332812 19.6662051,3.78297852 Z M18.8535156,13.3964844 C18.8535156,15.4098281 17.7010508,17.1687324 15.4281328,18.6243418 C13.9767773,19.5538203 12.499834,20.0625273 11.9975938,20.220416 C10.8958105,19.8816934 5.10351562,17.885709 5.10351562,13.3964844 L5.10351562,5.03145703 L11.9996348,3.76164453 L18.8535156,5.03085547 L18.8535156,13.3964844 Z" id="形状" fill="#FFFFFF"></path>
            <path d="M9.05917578,10.8503926 C8.79068555,10.5819023 8.35539062,10.5819023 8.08690039,10.8503926 C7.81841016,11.1188828 7.81841016,11.5541777 8.08690039,11.822668 L10.8158457,14.5515918 C10.9510469,14.6868145 11.1285723,14.7538457 11.3057754,14.7528787 C11.4829785,14.7538457 11.6604824,14.6868145 11.7957051,14.5515918 L16.2488574,10.270293 C16.5173262,10.0018242 16.5173477,9.56650781 16.2488574,9.29801758 C15.9803672,9.02952734 15.5450508,9.02952734 15.276582,9.29801758 L11.3152285,13.1064668 L9.05917578,10.8503926 Z" id="路径" fill="#1EE3CF"></path>
        </g>
    </g>
</svg>