<?xml version="1.0" encoding="UTF-8"?>
<svg width="24px" height="24px" viewBox="0 0 24 24" version="1.1" xmlns="http://www.w3.org/2000/svg" xmlns:xlink="http://www.w3.org/1999/xlink">
    <title>menu-pool</title>
    <g id="页面-1" stroke="none" stroke-width="1" fill="none" fill-rule="evenodd">
        <g id="menu-pool" fill-rule="nonzero">
            <rect id="矩形" fill="#000000" opacity="0" x="0" y="0" width="24" height="24"></rect>
            <path d="M9.76596782,23 C7.77799447,23 5.79002113,22.2428571 4.27401268,20.7285714 C2.80091013,19.2571429 2,17.3142857 2,15.2428571 C2,13.1714286 2.80091013,11.2285714 4.27401268,9.75714286 L6.90557452,7.12857143 C7.52055908,6.51428571 8.35007314,6.17142857 9.22249309,6.17142857 C10.0949131,6.17142857 10.9244271,6.51428571 11.5394117,7.12857143 L12.1686982,7.75714286 L14.2567853,5.67142857 L13.5559889,4.97142857 C13.112628,4.52857143 12.8694946,3.94285714 12.8694946,3.32857143 C12.8694946,2.7 13.112628,2.12857143 13.5559889,1.68571429 C14.4570128,0.771428571 15.9444174,0.771428571 16.8454412,1.68571429 L23.3242321,8.15714286 C24.225256,9.07142857 24.225256,10.5428571 23.3242321,11.4428571 C22.8808711,11.8857143 22.2944905,12.1285714 21.6795059,12.1285714 C21.0502194,12.1285714 20.4781407,11.8857143 20.0347798,11.4428571 L19.3339834,10.7428571 L17.2458963,12.8285714 L17.8751828,13.4571429 C19.1480579,14.7285714 19.1480579,16.8142857 17.8751828,18.1 L15.243621,20.7285714 C13.7419145,22.2428571 11.7539412,23 9.76596782,23 Z M9.28853292,8.09161946 C8.90877124,8.09161946 8.55714007,8.23227193 8.30396562,8.49951162 L5.7018949,11.0875171 C4.60480563,12.1846064 4,13.6473921 4,15.1945693 C4,16.7417464 4.60480563,18.2045321 5.7018949,19.3016214 C7.96639969,21.5661262 11.6514944,21.5661262 13.9159992,19.3016214 L16.5040047,16.7136159 C17.0525493,16.1650713 17.0525493,15.2789607 16.5040047,14.7304161 L15.2381324,13.4645439 C14.8865013,13.1129127 14.8865013,12.5221723 15.2381324,12.1705411 L18.5856613,8.82301231 C18.9372924,8.47138113 19.5280328,8.47138113 19.879664,8.82301231 L21.2158625,10.1592108 C21.3283845,10.2717328 21.4690369,10.2998633 21.5393632,10.2998633 C21.6096894,10.2998633 21.7503419,10.285798 21.8628638,10.1592108 C22.0457121,9.97636257 22.0457121,9.68099238 21.8628638,9.51220942 L15.4913069,3.14065247 C15.3787849,3.02813049 15.2381324,3 15.1678062,3 C15.09748,3 14.9568275,3.01406525 14.8443055,3.14065247 C14.7317836,3.25317445 14.7036531,3.39382692 14.7036531,3.46415315 C14.7036531,3.53447939 14.7177183,3.67513186 14.8443055,3.78765384 L16.180504,5.12385231 C16.5321352,5.47548349 16.5321352,6.06622387 16.180504,6.41785505 L12.8329752,9.75131862 C12.481344,10.1029498 11.8906036,10.1029498 11.5389725,9.75131862 L10.2731002,8.48544638 C10.0058605,8.23227193 9.65422934,8.09161946 9.28853292,8.09161946 Z" id="形状" fill="#FFFFFF"></path>
            <path d="M8.464,17.304 C8.26,17.304 8.068,17.232 7.912,17.076 C7.612,16.776 7.612,16.272 7.912,15.972 L11.344,12.54 C11.644,12.24 12.148,12.24 12.448,12.54 C12.748,12.84 12.748,13.344 12.448,13.644 L9.016,17.076 C8.86,17.232 8.656,17.304 8.464,17.304 L8.464,17.304 Z" id="路径" fill="#1EE3CF"></path>
        </g>
    </g>
</svg>