<?xml version="1.0" encoding="UTF-8"?>
<svg width="24px" height="24px" viewBox="0 0 24 24" version="1.1" xmlns="http://www.w3.org/2000/svg" xmlns:xlink="http://www.w3.org/1999/xlink">
    <title>menu-team</title>
    <g id="页面-1" stroke="none" stroke-width="1" fill="none" fill-rule="evenodd">
        <g id="menu-team" fill-rule="nonzero">
            <rect id="矩形" fill="#000000" opacity="0" x="0" y="0" width="24" height="24"></rect>
            <path d="M8.1186875,14.8071875 L8.776,14.4532083 L11.3039583,15.8688542 L11.3039583,12.3791667 L10.7983125,12.1262083 L8.27035416,10.6599167 L8.27035416,13.54375 L7.7140625,13.8470833 L5.59045834,12.6334792 L3.0625,14.0488542 L3.0625,16.9814375 L5.59045834,18.3973542 L8.1186875,16.9814375 L8.1186875,14.8071875 Z M15.8547708,13.8465417 L15.349125,13.5432083 L15.349125,10.6612708 L12.3157917,12.38025 L12.3157917,15.8688542 L14.84375,14.4532083 L15.5010625,14.8071875 L15.5010625,16.9814375 L18.0290208,18.3973542 L20.55725,16.9814375 L20.55725,14.0488542 L18.0290208,12.6329375 L15.8547708,13.8465417 Z M8.77654166,9.803 L11.809875,11.5219792 L12.3155208,11.2186458 L14.8434792,9.803 L12.3155208,8.38708334 L12.3155208,8.03310416 L14.3378333,6.87014584 L14.3378333,3.987125 L11.8104167,2.52083334 L9.28245834,3.987125 L9.28245834,6.8690625 L11.3047708,8.03202084 L11.3047708,8.386 L8.77654166,9.803 Z" id="形状" fill="#1EE3CF"></path>
            <polygon id="路径" fill="#FFFFFF" points="15.8547708 4.74654166 15.8547708 7.07083334 18.5343958 8.537125 18.5343958 11.166375 18.7873542 11.3180417 20.5569792 12.3293333 20.5569792 7.3240625"></polygon>
            <polygon id="路径" fill="#FFFFFF" points="14.3381042 18.0444583 11.8101458 19.4097292 9.2821875 18.0444583 8.8775625 18.2974167 7.20895834 19.2074167 11.8101458 21.735375 16.4113333 19.2074167 14.7427292 18.2974167"></polygon>
            <polygon id="路径" fill="#FFFFFF" points="5.08535416 11.168 5.08535416 8.53875 7.76525 7.07245834 7.76525 4.74654166 3.0625 7.3240625 3.0625 12.3296042 4.832125 11.3183125"></polygon>
        </g>
    </g>
</svg>