<?xml version="1.0" encoding="UTF-8"?>
<svg width="24px" height="24px" viewBox="0 0 24 24" version="1.1" xmlns="http://www.w3.org/2000/svg" xmlns:xlink="http://www.w3.org/1999/xlink">
    <title>menu-markets</title>
    <g id="页面-1" stroke="none" stroke-width="1" fill="none" fill-rule="evenodd">
        <g id="menu-markets" fill-rule="nonzero">
            <rect id="矩形" fill="#000000" opacity="0" x="0" y="0" width="24" height="24"></rect>
            <path d="M4.004,20.004 C3.404,20.004 3.008,19.608 3.008,19.008 L3.008,5.004 C3.008,4.404 3.404,4.008 4.004,4.008 C4.604,4.008 5,4.404 5,5.004 L5,19.008 C5,19.596 4.604,20.004 4.004,20.004 L4.004,20.004 Z M20.1791227,20.004 L3.81905728,20.004 C3.32805892,20.004 3.004,19.608 3.004,19.008 C3.004,18.408 3.32805892,18.012 3.81905728,18.012 L20.1889427,18.012 C20.6799411,18.012 21.004,18.408 21.004,19.008 C21.004,19.596 20.6701211,20.004 20.1791227,20.004 Z" id="形状" fill="#FFFFFF"></path>
            <path d="M15.268,14.04 L11.872,10.344 L8.596,12.804 C8.152,13.14 7.528,13.044 7.192,12.6 C6.856,12.156 6.952,11.532 7.396,11.196 L11.392,8.196 C11.8,7.884 12.376,7.944 12.724,8.316 L15.832,11.712 L19.132,6.432 C19.42,5.964 20.044,5.82 20.512,6.108 C20.98,6.396 21.124,7.02 20.824,7.488 L16.828,13.884 C16.66,14.148 16.384,14.316 16.072,14.352 C16.06,14.364 16.036,14.364 16,14.364 C15.724,14.364 15.448,14.244 15.268,14.04 Z" id="路径" fill="#1EE3CF"></path>
        </g>
    </g>
</svg>