<?xml version="1.0" encoding="UTF-8"?>
<svg width="24px" height="24px" viewBox="0 0 24 24" version="1.1" xmlns="http://www.w3.org/2000/svg" xmlns:xlink="http://www.w3.org/1999/xlink">
    <title>menu-swap</title>
    <g id="页面-1" stroke="none" stroke-width="1" fill="none" fill-rule="evenodd">
        <g id="menu-swap">
            <rect id="矩形" fill="#000000" fill-rule="nonzero" opacity="0" x="0" y="0" width="24" height="24"></rect>
            <circle id="椭圆形" stroke="#FFFFFF" stroke-width="2" cx="12" cy="12" r="9"></circle>
            <path d="M7.60402685,11 L16.3959732,11 C16.7298658,11 17,10.7490583 17,10.4388882 C17,10.128718 16.7298658,9.87777633 16.3959732,9.87777633 L9.0704698,9.87777633 L10.0604027,8.95817639 C10.2969799,8.73840759 10.2969799,8.38303676 10.0604027,8.1648266 C9.8238255,7.9450578 9.44127517,7.9450578 9.20637584,8.1648266 L7.23993289,9.9899987 C7.09395973,10.0928692 7,10.2549682 7,10.4388882 C7,10.7490583 7.27013423,11 7.60402685,11 Z M16.8239732,13.1638984 C16.6814753,13.0313703 16.4836547,12.978359 16.2975692,13.007983 L7.60352054,13.007983 C7.2699078,13.007983 7,13.2590068 7,13.5692785 C7,13.8795502 7.2699078,14.130574 7.60352054,14.130574 L14.9312657,14.130574 L13.9505448,15.0426793 C13.714166,15.26252 13.714166,15.6180072 13.9505448,15.8362888 C14.0678961,15.9454296 14.2221291,16 14.3780386,16 C14.533948,16 14.6865046,15.9454296 14.8055323,15.8362888 L16.8239732,13.9590671 C17.0586756,13.7392263 17.0586756,13.3837392 16.8239732,13.1638984 Z" id="形状" fill="#1EE3CF" fill-rule="nonzero"></path>
        </g>
    </g>
</svg>