<?xml version="1.0" encoding="UTF-8"?>
<svg width="80px" height="80px" viewBox="0 0 80 80" version="1.1" xmlns="http://www.w3.org/2000/svg" xmlns:xlink="http://www.w3.org/1999/xlink">
    <title>切片</title>
    <g id="页面-1" stroke="none" stroke-width="1" fill="none" fill-rule="evenodd">
        <g id="menu-home" transform="translate(10.000000, 8.000000)" fill-rule="nonzero">
            <path d="M33.342,1.39879162 L58.958,24.7587916 C59.71,25.6987916 60.276,26.8287916 60.276,27.9587916 L60.276,59.4167916 L60.278,59.4147916 C60.278,62.0527916 58.394,64.1247916 55.758,63.9347916 L4.332,63.9347916 C1.884,63.9347916 0,61.8627916 0,59.4147916 L0,27.7687916 C0,26.4487916 0.566,25.1307916 1.696,24.1887916 L27.314,1.02279162 C29.198,-0.485208377 31.646,-0.297208377 33.342,1.39879162 Z M30.14,5.73079162 L5.652,27.9567916 L5.652,58.4727916 L54.626,58.4727916 L54.626,28.3347916 L30.14,5.73079162 Z" id="形状结合" fill="#FFFFFF"></path>
            <polygon id="路径" fill="#1EE3CF" points="19.142 45.2867916 41.746 45.2867916 41.746 50.9387916 19.142 50.9387916 19.142 45.2867916"></polygon>
        </g>
    </g>
</svg>