<?xml version="1.0" encoding="UTF-8"?>
<svg width="24px" height="24px" viewBox="0 0 24 24" version="1.1" xmlns="http://www.w3.org/2000/svg" xmlns:xlink="http://www.w3.org/1999/xlink">
    <title>menu-project</title>
    <g id="页面-1" stroke="none" stroke-width="1" fill="none" fill-rule="evenodd">
        <g id="menu-project" fill-rule="nonzero">
            <rect id="矩形" fill="#000000" opacity="0" x="0" y="0" width="24" height="24"></rect>
            <path d="M3.68633511,15.8874326 L3.68633511,8.17733231 L2.77329179,8.17733231 C2.3509316,8.14957594 2.02329192,7.85196608 2.02329192,7.48959138 C2.02329192,7.12721668 2.35093162,6.82652275 2.77329179,6.80339244 L3.68633511,6.80339244 L3.68633511,4.70470317 C3.68633511,3.21356979 4.90838459,2 6.4099371,2 L19.2763944,2 C20.7794998,2 22,3.21356979 22,4.70470317 L22,19.2922128 C22.0008207,20.0100789 21.7142346,20.6988233 21.2033707,21.2067207 C20.6925069,21.7146182 19.999277,22 19.2763944,22 L6.4099371,22 C4.90608824,21.9991493 3.68719176,20.7887106 3.68633511,19.2952968 L3.68633511,17.3276793 L2.77329179,17.3276793 C2.34161483,17.3122591 2,16.9946029 2,16.6075559 C2,16.2220509 2.34161486,15.9028527 2.77329179,15.8874326 L3.68633511,15.8874326 L3.68633511,15.8874326 Z M5.0217386,15.8874326 L5.79813596,15.8874326 C6.22204893,15.9136469 6.54968863,16.226677 6.54968863,16.6075559 C6.54968863,16.9868928 6.22204893,17.3014649 5.79813596,17.3276793 L5.0217386,17.3276793 L5.0217386,19.4047803 C5.0217386,20.1125675 5.60093105,20.6861989 6.31055823,20.6861989 L19.3757733,20.6861989 C20.0869533,20.6861989 20.664593,20.1125675 20.664593,19.4047803 L20.664593,4.59521975 C20.6620379,3.88941707 20.0865077,3.31788045 19.3757733,3.3153431 L6.31211103,3.3153431 L6.31211103,3.31380107 C5.60102398,3.31549653 5.02499868,3.88752484 5.02329139,4.59367772 L5.02329139,6.80493447 L5.79813596,6.80493447 C6.24223526,6.80493447 6.60248365,7.11333847 6.60248365,7.49113338 C6.60093085,7.86892829 6.24068246,8.17579029 5.79813596,8.17579029 L5.0217386,8.17579029 L5.0217386,15.8874326 L5.0217386,15.8874326 Z" id="形状" fill="#FFFFFF"></path>
            <path d="M16.1366435,8.17733231 L9.26707945,8.17733231 C9.05972307,8.1694658 8.86224932,8.08729953 8.71117892,7.9460293 C8.57317232,7.81847478 8.49971738,7.63639441 8.51086841,7.44949884 C8.53571314,7.10254433 8.86024724,6.82498073 9.26707945,6.80493447 L16.1366435,6.80493447 C16.57919,6.80493447 16.9440967,7.11333847 16.9440967,7.49113338 C16.9394383,7.86892829 16.5807427,8.17579029 16.1366435,8.17579029 L16.1366435,8.17733231 Z" id="路径" fill="#1EE3CF"></path>
            <path d="M16.1366435,12.7201234 L9.26707945,12.7201234 C8.84006089,12.6985351 8.50621002,12.382421 8.50621002,12 C8.50621002,11.617579 8.84006089,11.3014649 9.26707945,11.2798766 L16.1366435,11.2798766 C16.563662,11.3014649 16.8975129,11.617579 16.8975129,12 C16.8975129,12.382421 16.563662,12.6985351 16.1366435,12.7201234 Z" id="路径" fill="#1EE3CF"></path>
            <path d="M16.1366435,17.3276793 L9.03726582,17.3276793 C8.82863497,17.3180817 8.63105048,17.2317917 8.4829181,17.0855821 C8.34381326,16.9485156 8.27083556,16.7586295 8.28260758,16.5643793 C8.30589951,16.2004626 8.63043361,15.9090208 9.03726582,15.8874326 L16.1350907,15.8874326 C16.344087,15.8960908 16.5423124,15.9818689 16.6909912,16.1279877 C16.8312594,16.2650326 16.9048837,16.4556897 16.8928545,16.6507325 C16.8695626,17.0146492 16.5450285,17.306091 16.1366435,17.3276793 L16.1366435,17.3276793 Z" id="路径" fill="#1EE3CF"></path>
        </g>
    </g>
</svg>